<svg width="62" height="59" viewBox="0 0 62 59" fill="none" xmlns="http://www.w3.org/2000/svg">
<ellipse cx="31" cy="29.5" rx="31" ry="29.5" fill="white"/>
<path d="M25.96 18H36.04C39.88 18 43 20.99 43 24.67V34.33C43 36.099 42.2667 37.7955 40.9615 39.0464C39.6562 40.2973 37.8859 41 36.04 41H25.96C22.12 41 19 38.01 19 34.33V24.67C19 22.901 19.7333 21.2045 21.0385 19.9536C22.3438 18.7027 24.1141 18 25.96 18ZM25.72 20.3C24.5743 20.3 23.4755 20.7362 22.6653 21.5126C21.8551 22.289 21.4 23.342 21.4 24.44V34.56C21.4 36.8485 23.332 38.7 25.72 38.7H36.28C37.4257 38.7 38.5245 38.2638 39.3347 37.4874C40.1449 36.711 40.6 35.658 40.6 34.56V24.44C40.6 22.1515 38.668 20.3 36.28 20.3H25.72ZM37.3 22.025C37.6978 22.025 38.0794 22.1765 38.3607 22.446C38.642 22.7156 38.8 23.0813 38.8 23.4625C38.8 23.8437 38.642 24.2094 38.3607 24.479C38.0794 24.7485 37.6978 24.9 37.3 24.9C36.9022 24.9 36.5206 24.7485 36.2393 24.479C35.958 24.2094 35.8 23.8437 35.8 23.4625C35.8 23.0813 35.958 22.7156 36.2393 22.446C36.5206 22.1765 36.9022 22.025 37.3 22.025ZM31 23.75C32.5913 23.75 34.1174 24.3558 35.2426 25.4341C36.3679 26.5125 37 27.975 37 29.5C37 31.025 36.3679 32.4875 35.2426 33.5659C34.1174 34.6442 32.5913 35.25 31 35.25C29.4087 35.25 27.8826 34.6442 26.7574 33.5659C25.6321 32.4875 25 31.025 25 29.5C25 27.975 25.6321 26.5125 26.7574 25.4341C27.8826 24.3558 29.4087 23.75 31 23.75ZM31 26.05C30.0452 26.05 29.1295 26.4135 28.4544 27.0605C27.7793 27.7075 27.4 28.585 27.4 29.5C27.4 30.415 27.7793 31.2925 28.4544 31.9395C29.1295 32.5865 30.0452 32.95 31 32.95C31.9548 32.95 32.8705 32.5865 33.5456 31.9395C34.2207 31.2925 34.6 30.415 34.6 29.5C34.6 28.585 34.2207 27.7075 33.5456 27.0605C32.8705 26.4135 31.9548 26.05 31 26.05Z" fill="#571221"/>
</svg>
