<svg width="62" height="62" viewBox="0 0 62 62" fill="none" xmlns="http://www.w3.org/2000/svg">
<circle cx="31" cy="31" r="31" fill="white"/>
<g transform="translate(0, 1.5)">
<path d="M25.9399 23C25.9397 23.5305 25.7287 24.0391 25.3534 24.4139C24.9782 24.7888 24.4694 24.9993 23.9389 24.999C23.4085 24.9988 22.8999 24.7878 22.525 24.4125C22.1501 24.0373 21.9397 23.5285 21.9399 22.998C21.9402 22.4676 22.1512 21.959 22.5264 21.5841C22.9017 21.2092 23.4105 20.9988 23.9409 20.999C24.4714 20.9993 24.98 21.2103 25.3549 21.5855C25.7297 21.9608 25.9402 22.4696 25.9399 23ZM25.9999 26.48H21.9999V39H25.9999V26.48ZM32.3199 26.48H28.3399V39H32.2799V32.43C32.2799 28.77 37.0499 28.43 37.0499 32.43V39H40.9999V31.07C40.9999 24.9 33.9399 25.13 32.2799 28.16L32.3199 26.48Z" fill="#0B0082"/>
</g>
</svg>
