<svg width="62" height="59" viewBox="0 0 62 59" fill="none" xmlns="http://www.w3.org/2000/svg">
<ellipse cx="31" cy="29.5" rx="31" ry="29.5" fill="white"/>
<path d="M25.9399 22.999C25.9397 23.5295 25.7287 24.0381 25.3534 24.413C24.9782 24.7879 24.4694 24.9983 23.9389 24.998C23.4085 24.9978 22.8999 24.7868 22.525 24.4116C22.1501 24.0363 21.9397 23.5275 21.9399 22.997C21.9402 22.4666 22.1512 21.958 22.5264 21.5831C22.9017 21.2082 23.4105 20.9978 23.9409 20.998C24.4714 20.9983 24.98 21.2093 25.3549 21.5845C25.7297 21.9598 25.9402 22.4686 25.9399 22.999ZM25.9999 26.479H21.9999V38.999H25.9999V26.479ZM32.3199 26.479H28.3399V38.999H32.2799V32.429C32.2799 28.769 37.0499 28.429 37.0499 32.429V38.999H40.9999V31.069C40.9999 24.899 33.9399 25.129 32.2799 28.159L32.3199 26.479Z" fill="#571221"/>
</svg>
